<svg width="20" height="20" viewBox="0 0 20 20" fill="none" xmlns="http://www.w3.org/2000/svg">
<path d="M3.69231 0.576923C3.69231 0.269231 3.42308 0 3.11538 0H1.57692C1.26923 0 1 0.269231 1 0.576923V12.5C1 12.8077 1.26923 13.0769 1.57692 13.0769H3.11538C3.42308 13.0769 3.69231 12.8077 3.69231 12.5V0.576923Z" fill="#060606"/>
<path d="M19.4618 0.576923C19.4618 0.269231 19.1926 0 18.8849 0H17.3465C17.0388 0 16.7695 0.269231 16.7695 0.576923V12.5C16.7695 12.8077 17.0388 13.0769 17.3465 13.0769H18.8849C19.1926 13.0769 19.4618 12.8077 19.4618 12.5V0.576923Z" fill="#060606"/>
<path d="M14.6539 0H13.5C13.1923 0 12.9231 0.307692 12.9231 0.615385V5.38461C12.9231 5.53846 13 5.65385 13.1539 5.73077C13.8077 6.07692 14.3846 6.5 14.8846 7C15 7.11538 15.2308 7.03846 15.2308 6.88461V0.615385C15.2308 0.307692 14.9616 0 14.6539 0Z" fill="#060606"/>
<path d="M9.49998 5.07692C9.73075 5.03846 9.99998 5.03846 10.2308 5.03846C10.4615 5.03846 10.7308 5.03846 10.9615 5.07692C11.1923 5.11538 11.3846 4.92308 11.3846 4.69231V0.615385C11.3846 0.307692 11.1154 0 10.8077 0H9.65383C9.34614 0 9.0769 0.307692 9.0769 0.615385V4.69231C9.0769 4.92308 9.26921 5.11538 9.49998 5.07692Z" fill="#060606"/>
<path d="M5.57662 7C6.07662 6.46154 6.69201 6.03846 7.34585 5.73077C7.46124 5.65385 7.53816 5.53846 7.53816 5.38461V0.615385C7.53816 0.307692 7.26893 0 6.96124 0H5.80739C5.4997 0 5.23047 0.307692 5.23047 0.615385V6.88461C5.23047 7.03846 5.42278 7.11538 5.57662 7Z" fill="#060606"/>
<path d="M10.2308 6.57617C7.46161 6.57617 5.23084 8.80694 5.23084 11.5762C5.23084 12.4223 5.46161 13.2685 5.84623 13.9608L3.11546 16.6916C2.88469 16.9223 2.88469 17.2685 3.11546 17.4992L3.92315 18.3069C4.15392 18.5377 4.50007 18.5377 4.73084 18.3069L7.38469 15.6531C8.19238 16.23 9.19238 16.5762 10.2308 16.5762C13.0001 16.5762 15.2308 14.3454 15.2308 11.5762C15.2308 8.80694 13.0001 6.57617 10.2308 6.57617ZM10.2308 14.2685C8.73084 14.2685 7.53854 13.0762 7.53854 11.5762C7.53854 10.0762 8.73084 8.88386 10.2308 8.88386C11.7308 8.88386 12.9232 10.0762 12.9232 11.5762C12.9232 13.0762 11.7308 14.2685 10.2308 14.2685Z" fill="#060606"/>
</svg>
